<?xml version="1.0" encoding="UTF-8"?>
<svg version="1.1" viewBox="0 0 512 512" xmlns="http://www.w3.org/2000/svg">
 <path fill="#2196F3" d="m40.004 72c-8.8366 0-16 7.1634-16 16v16c0 8.8366 7.1634 16 16 16h356c8.8366 0 16-7.1634 16-16v-16c0-8.8366-7.1634-16-16-16zm0 114c-8.8366 0-16 6.1056-16 13.637v272.73c0 7.5312 7.1634 13.637 16 13.637h16c8.8366 0 16-6.1056 16-13.637v-272.73c0-7.5311-7.1634-13.637-16-13.637zm104.36 46c-9.0374 0-16.363 7.1634-16.363 16v16c0 8.8366 7.3259 16 16.363 16h327.27c9.0374 0 16.363-7.1634 16.363-16v-16c0-8.8366-7.3259-16-16.363-16zm0 160c-9.0374 0-16.363 7.1634-16.363 16v16c0 8.8366 7.3259 16 16.363 16h327.27c9.0374 0 16.363-7.1634 16.363-16v-16c0-8.8366-7.3259-16-16.363-16z"/>
</svg>