<?xml version="1.0" encoding="UTF-8"?>
<svg version="1.1" viewBox="0 0 512 512" xmlns="http://www.w3.org/2000/svg">
 <path fill="#2196F3" d="m120.79 427.81h141.04c61.28 0 129.37-23.831 129.37-95.812 0-44.744-30.154-78.303-75.385-84.139v-0.97271c35.504-11.186 59.335-37.449 59.335-75.871 0-74.898-65.658-87.544-125.97-87.544h-128.4zm75.871-280.14h51.553c23.831 0 51.067 7.2953 51.067 35.99 0 27.722-24.318 37.449-47.663 37.449h-54.958zm0 137.64h57.39c24.804 0 61.28 5.3499 61.28 37.936 0 30.154-26.749 40.367-50.581 40.367h-68.089z"/>
</svg>