<?xml version="1.0" encoding="UTF-8"?>
<svg version="1.1" viewBox="0 0 512 512" xmlns="http://www.w3.org/2000/svg">
 <path fill="#2196f3" d="m197.18 113.7c-4.3818 0-7.6679 0.87662-9.8589 2.6293l-172.86 113.05c-9.6398 6.5725-14.459 15.555-14.459 26.948 0 10.954 4.8199 19.718 14.459 26.29l172.86 113.05c2.1908 1.7527 5.4771 2.6288 9.8589 2.6288 7.4488 0 14.46-3.067 21.032-9.2014 7.0107-6.5725 10.516-14.24 10.516-23.004 0-9.2017-3.2864-15.555-9.8589-19.06l-138.02-90.702 138.02-90.702c6.5725-4.3818 9.8589-10.735 9.8589-19.06 0-8.7633-3.5049-16.431-10.516-23.004-6.5725-6.5725-13.583-9.8589-21.032-9.8589zm118.31 0c-7.4488 0-14.678 3.2864-21.689 9.8589-6.5725 6.5725-9.8589 14.24-9.8589 23.004 0 7.887 3.067 14.24 9.2014 19.06l138.68 90.702-138.68 90.702c-6.1344 3.9436-9.2014 10.297-9.2014 19.06 0 8.7633 3.2864 16.431 9.8589 23.004 7.0107 6.1344 14.24 9.2014 21.689 9.2014 3.9436 0 7.0107-0.87612 9.2014-2.6288l172.86-113.05c9.6398-6.1344 14.459-14.898 14.459-26.29 0-11.392-4.8199-20.375-14.459-26.948l-172.86-113.05c-2.1908-1.7527-5.2581-2.6293-9.2014-2.6293z"/>
</svg>