<?xml version="1.0" encoding="UTF-8"?>
<svg version="1.1" viewBox="0 0 512 512" xmlns="http://www.w3.org/2000/svg">
 <path fill="#2196F3" d="m391.69 79.992c-18.969 0-36.134 3.6058-51.496 10.817-15.206 7.0544-27.12 16.852-35.743 29.393-8.4654 12.384-14.814 29.001-19.047 49.851l60.902 10.347c1.7244-15.05 6.5845-26.493 14.58-34.333 7.995-7.8383 17.636-11.757 28.922-11.757 11.444 0 20.615 3.4486 27.512 10.346 6.8978 6.8977 10.346 16.147 10.346 27.747 0 13.639-4.7027 24.612-14.109 32.92-9.406 8.1519-23.044 11.993-40.915 11.522l-7.2896 53.848c11.757-3.292 21.869-4.9382 30.335-4.9382 12.855 0 23.75 4.8602 32.687 14.58 8.9356 9.7196 13.404 22.888 13.404 39.505 0 17.558-4.7033 31.509-14.109 41.857-9.2491 10.347-20.693 15.52-34.333 15.52-12.698 0-23.515-4.3112-32.451-12.933-8.9356-8.622-14.423-21.085-16.461-37.389l-63.961 7.7598c3.292 29.001 15.207 52.518 35.743 70.544 20.536 17.871 46.403 26.808 77.6 26.808 32.92 0 60.434-10.66 82.537-31.98 22.103-21.32 33.155-47.109 33.155-77.365 0-20.85-5.9571-38.643-17.871-53.377-11.757-14.736-27.512-24.221-47.266-28.454 33.078-18.028 49.618-42.17 49.618-72.425 0-21.32-8.0736-40.445-24.22-57.375-19.596-20.693-45.62-31.039-78.069-31.039zm-389.18 1.4108v344.73h66.078v-125.1c0-21.006 1.9596-36.841 5.8788-47.501 4.0759-10.817 10.425-18.89 19.047-24.22 8.622-5.3301 18.42-7.9955 29.393-7.9955 9.5626 0 17.48 2.1163 23.75 6.349 6.4273 4.0759 10.895 9.6412 13.403 16.696 2.5082 7.0544 3.7627 23.672 3.7627 49.851v131.92h66.078v-146.5c0-22.418-1.1754-38.955-3.5269-49.615-2.1947-10.66-6.4273-20.38-12.698-29.16-6.1138-8.779-15.285-15.99-27.512-21.634-12.228-5.6436-25.944-8.4657-41.151-8.4657-29.628 0-55.103 12.463-76.423 37.389v-126.74z"/>
</svg>