<?xml version="1.0" encoding="UTF-8"?>
<svg version="1.1" viewBox="0 0 512 512" xmlns="http://www.w3.org/2000/svg">
 <path fill="#2196F3" d="m400.79 79.996c-31.567 0-57.872 8.051-78.917 24.153-21.044 16.102-33.56 42.645-37.544 79.634l66.958 6.6963c1.2754-19.609 6.0581-33.639 14.348-42.09 8.2901-8.4497 19.45-12.674 33.48-12.674 14.189 0 25.269 4.0653 33.239 12.196 8.1306 7.9713 12.196 19.45 12.196 34.435 0 13.551-4.6236 27.262-13.87 41.132-6.8553 10.044-25.428 29.175-55.718 57.393-37.623 34.914-62.814 62.973-75.567 84.177-12.754 21.044-20.406 43.365-22.957 66.96h235.55v-62.415h-133.44c3.5073-6.0581 8.0512-12.276 13.631-18.653 5.7393-6.3769 19.211-19.291 40.415-38.74 21.204-19.45 35.872-34.356 44.003-44.72 12.276-15.624 21.204-30.53 26.784-44.72 5.7393-14.348 8.6092-29.414 8.6092-45.198 0-27.741-9.8845-50.937-29.654-69.59-19.769-18.653-46.95-27.979-81.547-27.979zm-400.79 1.435v350.57h67.198v-127.22c0-21.363 1.9927-37.465 5.9785-48.305 4.1452-11.001 10.602-19.211 19.37-24.631 8.7685-5.4205 18.733-8.1306 29.892-8.1306 9.725 0 17.776 2.1524 24.153 6.4568 6.5365 4.1452 11.08 9.8046 13.631 16.979 2.5508 7.1741 3.8261 24.073 3.8261 50.696v134.16h67.198v-148.98c0-22.798-1.1954-39.618-3.5869-50.458-2.232-10.841-6.5368-20.725-12.914-29.654-6.2177-8.9278-15.544-16.261-27.979-22-12.435-5.7393-26.385-8.6092-41.849-8.6092-30.131 0-56.038 12.674-77.721 38.023v-128.9z"/>
</svg>