<?xml version="1.0" encoding="UTF-8"?>
<svg version="1.1" viewBox="0 0 512 512" xmlns="http://www.w3.org/2000/svg">
 <path fill="#2196F3" d="m429.97 80.006c-7.6523 21.362-21.761 40.093-42.326 56.195-20.565 15.942-39.617 26.783-57.153 32.521v60.979c33.318-11 62.254-27.979 86.804-50.936v253.24h67.196v-352.02zm-402.47 1.435v350.56h67.196v-127.22c0-21.362 1.9927-37.464 5.9783-48.303 4.1451-11 10.601-19.21 19.37-24.631 8.7682-5.4203 18.732-8.1303 29.892-8.1303 9.7247 0 17.775 2.1524 24.152 6.4567 6.5363 4.1451 11.08 9.8043 13.631 16.978s3.826 24.072 3.826 50.695v134.15h67.196v-148.98c0-22.797-1.1954-39.617-3.5868-50.457-2.2319-10.841-6.5366-20.725-12.914-29.653-6.2175-8.9275-15.543-16.261-27.979-22-12.435-5.7391-26.384-8.609-41.848-8.609-30.13 0-56.037 12.674-77.718 38.022v-128.89z"/>
</svg>