<?xml version="1.0" encoding="UTF-8"?>
<svg version="1.1" viewBox="0 0 512 512" xmlns="http://www.w3.org/2000/svg">
 <path fill="#2196F3" d="m48 64c-26.51 0-48 21.49-48 48v288c0 26.51 21.49 48 48 48h416c26.51 0 48-21.49 48-48v-288c0-26.51-21.49-48-48-48h-416zm6 48h404c3.3137 0 6 2.6863 6 6v192.42l-148-105.68c-5.0273-2.9684-10.496-4.4915-15.928-4.6914l0.00781-0.00782c-8.8029-0.32399-17.501 2.8387-24.088 8.9414l-215.3 191.02h-6.6934c-3.3137 0-6-2.6863-6-6v-276c0-3.3137 2.6863-6 6-6zm90.039 21.631a66.712 66.712 0 0 0-66.713 66.713 66.712 66.712 0 0 0 66.713 66.713 66.712 66.712 0 0 0 66.715-66.713 66.712 66.712 0 0 0-66.715-66.713zm0 37.797a28.915 28.915 0 0 1 28.916 28.916 28.915 28.915 0 0 1-28.916 28.914 28.915 28.915 0 0 1-28.914-28.914 28.915 28.915 0 0 1 28.914-28.916zm158.04 80.539 161.93 118.59v23.443c0 3.3137-2.6863 6-6 6h-319.39l163.47-148.03z"/>
</svg>