<?xml version="1.0" encoding="UTF-8"?>
<svg version="1.1" viewBox="0 0 512 512" xmlns="http://www.w3.org/2000/svg">
 <path fill="#2196F3" d="m264.31 200.43c10.607 0 18.84 1.8998 24.698 5.6994 6.0161 3.6413 9.0241 9.4199 9.0241 17.336 0 3.3247-0.31663 6.5702-0.9499 9.7366l-31.109 149.61c-0.79159 4.1163-1.1874 7.1243-1.1874 9.0241 0 6.3327 2.6122 10.528 7.8367 12.586 5.2245 1.8998 14.882 2.8497 28.972 2.8497l-1.4249 11.161c-27.072 6.6494-48.92 9.974-65.544 9.974-11.716 0-20.898-2.2956-27.547-6.8868-6.491-4.5912-9.7366-11.557-9.7366-20.898 0-4.4329 0.63327-9.974 1.8998-16.623l28.497-137.74c9.7307-44.676 14.825-44.133 36.571-45.833zm50.345-83.592c0 10.766-3.3247 19.552-9.974 26.36-6.6494 6.6494-14.961 9.974-24.935 9.974-9.6574 0-17.652-3.1664-23.985-9.4991s-9.4991-14.407-9.4991-24.223c0-11.082 3.3247-19.79 9.974-26.122 6.6494-6.491 15.04-9.7366 25.173-9.7366 9.6574 0 17.573 3.008 23.748 9.0241 6.3327 5.8578 9.4991 13.932 9.4991 24.223z"/>
</svg>