<?xml version="1.0" encoding="UTF-8"?>
<svg version="1.1" viewBox="0 0 512 512" xmlns="http://www.w3.org/2000/svg">
 <path fill="#2196F3" d="m299.67 212.34c38.318 38.318 40.783 99.215 7.3125 140.37-4.6815 5.7975-2.088 2.8988-63.705 64.515-41.022 41.022-107.45 41.059-148.49 0-41.033-41.017-41.05-107.44 0-148.49 24.58-24.58 38.876-38.924 47.557-47.593 5.5972-5.589 15.248-1.7655 15.364 6.144a129.98 129.98 0 0 0 3.5595 28.371c0.7245 3.0218-0.204 6.2017-2.4015 8.3985l-34.387 34.379c-24.566 24.581-24.665 64.419 0 89.1 24.581 24.566 64.419 24.665 89.1 0l56.392-56.4c24.538-24.544 24.583-64.51 0-89.092a62.791 62.791 0 0 0-17.11-12.172c-3.4672-1.6748-5.3865-5.4375-4.9207-9.2595 1.017-8.3415 4.722-16.414 11.111-22.804l3.2812-3.2812c2.7188-2.7195 6.8827-3.4455 10.32-1.7205 9.7492 4.893 18.89 11.408 27.019 19.537zm117.55-117.55c-41.043-41.059-107.47-41.022-148.49 0-61.617 61.617-59.023 58.717-63.705 64.515-33.47 41.155-31.006 102.05 7.3125 140.37 8.1285 8.1285 17.269 14.644 27.019 19.537 3.4365 1.725 7.6005 0.99825 10.32-1.7205l3.2812-3.2812c6.39-6.3892 10.094-14.462 11.111-22.804 0.46575-3.822-1.4535-7.5847-4.9208-9.2595a62.779 62.779 0 0 1-17.11-12.172c-24.583-24.583-24.538-64.549 0-89.092l56.392-56.4c24.681-24.665 64.519-24.566 89.1 0 24.665 24.681 24.566 64.519 0 89.1l-34.386 34.38c-2.1975 2.1968-3.126 5.3768-2.4015 8.3985a129.98 129.98 0 0 1 3.5595 28.371c0.11625 7.9095 9.7672 11.733 15.364 6.144 8.6805-8.6685 22.977-23.013 47.557-47.593 41.05-41.051 41.032-107.47-7.5e-4 -148.49z"/>
</svg>