<?xml version="1.0" encoding="UTF-8"?>
<svg version="1.1" viewBox="0 0 512 512" xmlns="http://www.w3.org/2000/svg">
 <path d="m253.05 83.834-17.04 17.04s-35.099 35.099-51.979 51.979c-14.214 14.214-17.364 34.149-15.135 48.209 1.6936 10.684 5.4288 19.18 8.5755 25.163-0.0559 0.19337-5e-3 0.28018-0.10198 0.50047-0.90685 2.0518-1.8702 3.6815-2.5714 4.8102l-54.437 54.435 14.942 14.942c-17.609 17.436-45.081 44.703-58.48 58.638-6.5428 6.8045-11.468 14.509-13.519 23.361-2.0512 8.8518-0.43335 18.215 2.7377 24.711 6.3421 12.993 17.181 17.769 17.181 17.769l5.2714 2.7754h117.52l7.0866-7.2247 21.478-21.903 11.883 11.142 16.501-16.501s25.735-25.735 35.424-35.424c0.1628-0.1628 4e-3 -0.0384 0.13649-0.17257 1.636 0.59767 4.3688 1.7211 8.3198 4.0022 20.793 12.005 41.495 4.7991 54.404-1.4308 12.909-6.2299 22.088-14.121 22.088-14.121l0.78131-0.65893 65.487-65.487zm0 68.158 128.4 128.4-29.646 29.646c-0.64879 0.5198-5.3421 4.2451-11.497 7.2153-6.5923 3.1814-10.346 2.5295-9.3599 3.0985-11.588-6.6903-22.276-11.641-35.538-11.133-13.263 0.50823-24.404 8.2709-31.095 14.962-5.1754 5.1754-10.958 10.958-18.922 18.922l-12.217-11.456-29.526-30.549-15.122-15.122 23.638-23.64 1.1876-1.6818s4.4316-6.1323 8.1048-14.443c3.6732-8.3108 10.67-21.516 0.48792-39.151-2.1545-3.7318-4.8137-9.573-5.4424-13.539s-1.0522-3.918 1.6128-6.583c11.346-11.346 23.322-23.323 34.939-34.941zm-83.444 182.82 30.698 30.342-14.526 14.812h-61.301c14.277-14.446 31.673-31.776 45.129-45.154z" fill="#2196f3"/>
</svg>
