<?xml version="1.0" encoding="UTF-8"?>
<svg version="1.1" viewBox="0 0 512 512" xmlns="http://www.w3.org/2000/svg">
 <path fill="#2196F3" d="m41.059 72c-3.8801 0.0065-7.4258 2.1928-9.1621 5.6484l-10.264 20.443c-3.4117 6.7899 1.5363 14.783 9.1602 14.797h10.266v81.777h-20.529c-5.6689 0-10.266 4.5771-10.266 10.223v20.445c0 5.6456 4.5967 10.221 10.266 10.221h82.115c5.6689 0 10.266-4.5751 10.266-10.221v-20.445c0-5.6456-4.5967-10.223-10.266-10.223h-20.529v-112.44c0-5.6456-4.5948-10.223-10.264-10.223h-30.793zm134.94 0c-8.8366 0-16 7.1634-16 16v16c0 8.8366 7.1634 16 16 16h320c8.8366 0 16-7.1634 16-16v-16c0-8.8366-7.1634-16-16-16h-320zm0 160c-8.8366 0-16 7.1634-16 16v16c0 8.8366 7.1634 16 16 16h320c8.8366 0 16-7.1634 16-16v-16c0-8.8366-7.1634-16-16-16h-320zm-118.02 44.445c-27.406 0-43.368 12.776-51.9 23.957-5.6198 7.1428-3.8488 13.852 3.5801 19.641l11.008 8.791c7.198 5.8267 14.113 3.1547 20.695-3.1191 3.2341-3.1635 7.5919-4.9265 12.125-4.9062 4.2726 0 11.908 1.9944 11.908 11.182 0.038489 16.253-65.398 27.905-65.398 88.318v5.1113c0 9.4683 6.5183 14.58 15.525 14.58h87.119c5.6689 0 10.266-4.5771 10.266-10.223v-20.443c0-5.6456-4.5967-10.223-10.266-10.223h-49.615c4.2084-13.148 62.01-23.868 62.01-72.117 0-37.132-32.075-50.549-57.057-50.549zm118.02 115.55c-8.8366 0-16 7.1634-16 16v16c0 8.8366 7.1634 16 16 16h320c8.8366 0 16-7.1634 16-16v-16c0-8.8366-7.1634-16-16-16h-320z"/>
</svg>