<?xml version="1.0" encoding="UTF-8" standalone="no"?>
<svg
   xmlns:dc="http://purl.org/dc/elements/1.1/"
   xmlns:cc="http://creativecommons.org/ns#"
   xmlns:rdf="http://www.w3.org/1999/02/22-rdf-syntax-ns#"
   xmlns:svg="http://www.w3.org/2000/svg"
   xmlns="http://www.w3.org/2000/svg"
   xmlns:xlink="http://www.w3.org/1999/xlink"
   xmlns:sodipodi="http://sodipodi.sourceforge.net/DTD/sodipodi-0.dtd"
   xmlns:inkscape="http://www.inkscape.org/namespaces/inkscape"
   width="200mm"
   height="200mm"
   version="1.1"
   viewBox="0 0 200 200"
   id="svg176"
   sodipodi:docname="setup.svg"
   inkscape:export-filename="C:\Ethea\MDShellExtensions\Icons\setup.png"
   inkscape:export-xdpi="130.048"
   inkscape:export-ydpi="130.048"
   inkscape:version="1.0.2-2 (e86c870879, 2021-01-15)">
  <sodipodi:namedview
     pagecolor="#ffffff"
     bordercolor="#666666"
     borderopacity="1"
     objecttolerance="10"
     gridtolerance="10"
     guidetolerance="10"
     inkscape:pageopacity="0"
     inkscape:pageshadow="2"
     inkscape:window-width="1920"
     inkscape:window-height="1017"
     id="namedview178"
     showgrid="false"
     inkscape:zoom="0.44317708"
     inkscape:cx="161.86268"
     inkscape:cy="565.32455"
     inkscape:window-x="-8"
     inkscape:window-y="-8"
     inkscape:window-maximized="1"
     inkscape:current-layer="g174"
     inkscape:document-rotation="0"
     inkscape:snap-global="false" />
  <defs
     id="defs59">
    <linearGradient
       id="linearGradient927">
      <stop
         offset="0"
         id="stop2" />
      <stop
         stop-color="#333"
         offset="1"
         id="stop4" />
    </linearGradient>
    <linearGradient
       id="linearGradient919">
      <stop
         offset="0"
         id="stop7" />
      <stop
         stop-color="#4d4d4d"
         offset="1"
         id="stop9" />
    </linearGradient>
    <linearGradient
       id="linearGradient981"
       x1="150.58"
       x2="126.5"
       y1="28.545"
       y2="172.75"
       gradientUnits="userSpaceOnUse">
      <stop
         offset="0"
         id="stop12" />
      <stop
         stop-color="#1a1a1a"
         offset="1"
         id="stop14" />
    </linearGradient>
    <linearGradient
       id="linearGradient1003"
       x1="51.761"
       x2="89.975"
       y1="160.41"
       y2="25"
       gradientUnits="userSpaceOnUse">
      <stop
         stop-color="#095a6f"
         offset="0"
         id="stop17" />
      <stop
         stop-color="#0d84a3"
         stop-opacity=".999"
         offset="1"
         id="stop19" />
    </linearGradient>
    <path
       id="A-6"
       transform="matrix(2 0 0 2 40 158)"
       d="M5.482 31.319A18.27 18.27 0 0 1 .109 18.358C.112 8.234 8.319.027 18.443.024s18.339 8.208 18.339 18.334h-10.74a7.6 7.6 0 0 0-7.599-7.593c-4.194 0-7.593 3.399-7.593 7.593a7.57 7.57 0 0 0 2.22 5.363h.005c1.375 1.38 2.52 1.779 5.368 2.231h0c5.066.527 9.648 2.054 12.966 5.372h0c3.319 3.319 5.373 7.901 5.373 12.962 0 10.126-8.213 18.339-18.339 18.339S.109 54.412.109 44.286H10.85a7.6 7.6 0 0 0 7.593 7.598c4.195 0 7.599-3.404 7.599-7.598 0-2.095-.851-3.988-2.221-5.363h-.005c-1.375-1.375-3.348-1.849-5.373-2.226v-.005c-4.91-.753-9.643-2.054-12.961-5.373h0zM73.452.024l-12.97 62.601h-10.74L36.782.024h10.74l7.6 36.663L62.712.024zm18.34 25.928h18.334l.005 18.334c0 10.127-8.213 18.34-18.339 18.34s-18.334-8.213-18.334-18.34h0l-.005-25.927C73.456 8.233 81.666.026 91.792.025s18.331 8.21 18.334 18.334H99.385a7.6 7.6 0 0 0-7.593-7.594 7.6 7.6 0 0 0-7.594 7.594v25.927c0 4.195 3.399 7.594 7.594 7.594a7.6 7.6 0 0 0 7.593-7.589v-7.593h-7.593V25.952z"
       fill="#fff" />
    <linearGradient
       id="linearGradient2082"
       x1="91.824"
       x2="118.09"
       y1="165.65"
       y2="23.485"
       gradientUnits="userSpaceOnUse">
      <stop
         stop-color="#001d25"
         offset="0"
         id="stop23" />
      <stop
         stop-color="#00313e"
         offset=".34934"
         id="stop25" />
      <stop
         stop-color="#007393"
         offset=".70901"
         id="stop27" />
      <stop
         stop-color="#fff"
         offset="1"
         id="stop29" />
    </linearGradient>
    <linearGradient
       id="linearGradient2114"
       x1="122.26"
       x2="122.26"
       y1="172.31"
       y2="20.393"
       gradientTransform="translate(0)"
       gradientUnits="userSpaceOnUse">
      <stop
         stop-color="#fff"
         offset="0"
         id="stop32" />
      <stop
         stop-color="#fff"
         offset=".8399"
         id="stop34" />
      <stop
         stop-color="#fff"
         stop-opacity="0"
         offset="1"
         id="stop36" />
    </linearGradient>
    <linearGradient
       id="linearGradient921"
       x1="90.659"
       x2="106.3"
       y1="71.725"
       y2="37.656"
       gradientTransform="matrix(1.2618908,0,0,1.2618908,4.4655208,-27.966406)"
       gradientUnits="userSpaceOnUse"
       xlink:href="#linearGradient919" />
    <linearGradient
       id="linearGradient929"
       x1="90.659"
       x2="106.3"
       y1="71.725"
       y2="37.656"
       gradientTransform="matrix(1.2618908,0,0,1.2618908,4.4655208,-27.966406)"
       gradientUnits="userSpaceOnUse"
       xlink:href="#linearGradient927" />
    <linearGradient
       id="linearGradient995"
       x1="87.85"
       x2="113.89"
       y1="66.493"
       y2="-.031793"
       gradientTransform="matrix(1.2619 0 0 1.2619 -4.3805 41.794)"
       gradientUnits="userSpaceOnUse"
       xlink:href="#linearGradient919" />
    <linearGradient
       id="linearGradient997"
       x1="87.85"
       x2="113.89"
       y1="66.493"
       y2="-.031793"
       gradientTransform="matrix(1.2619 0 0 1.2619 -4.3805 41.794)"
       gradientUnits="userSpaceOnUse"
       xlink:href="#linearGradient927" />
    <filter
       id="filter1009"
       x="-.08489"
       y="-.30249"
       width="1.1698"
       height="1.605"
       color-interpolation-filters="sRGB">
      <feGaussianBlur
         stdDeviation="4.1820438"
         id="feGaussianBlur43" />
    </filter>
    <filter
       id="filter1009-9"
       x="-.19097"
       y="-.71421"
       width="1.3819"
       height="2.4284"
       color-interpolation-filters="sRGB">
      <feGaussianBlur
         stdDeviation="9.3598124"
         id="feGaussianBlur46" />
    </filter>
    <linearGradient
       id="linearGradient1049"
       x1="154.16"
       x2="177.92"
       y1="199.53"
       y2=".46883"
       gradientUnits="userSpaceOnUse">
      <stop
         stop-color="#ccc"
         offset="0"
         id="stop49" />
      <stop
         stop-color="#999"
         offset=".23575"
         id="stop51" />
      <stop
         stop-color="#ececec"
         offset="1"
         id="stop53" />
    </linearGradient>
    <filter
       id="filter1070"
       x="-.0099605"
       y="-.041203"
       width="1.0199"
       height="1.0824"
       color-interpolation-filters="sRGB">
      <feGaussianBlur
         stdDeviation="0.44873112"
         id="feGaussianBlur56" />
    </filter>
    <path
       d="M5.482 31.319A18.27 18.27 0 0 1 .109 18.358C.112 8.234 8.319.027 18.443.024s18.339 8.208 18.339 18.334h-10.74a7.6 7.6 0 0 0-7.599-7.593c-4.194 0-7.593 3.399-7.593 7.593a7.57 7.57 0 0 0 2.22 5.363h.005c1.375 1.38 2.52 1.779 5.368 2.231h0c5.066.527 9.648 2.054 12.966 5.372h0c3.319 3.319 5.373 7.901 5.373 12.962 0 10.126-8.213 18.339-18.339 18.339S.109 54.412.109 44.286H10.85a7.6 7.6 0 0 0 7.593 7.598c4.195 0 7.599-3.404 7.599-7.598 0-2.095-.851-3.988-2.221-5.363h-.005c-1.375-1.375-3.348-1.849-5.373-2.226v-.005c-4.91-.753-9.643-2.054-12.961-5.373h0zM73.452.024l-12.97 62.601h-10.74L36.782.024h10.74l7.6 36.663L62.712.024zm18.34 25.928h18.334l.005 18.334c0 10.127-8.213 18.34-18.339 18.34s-18.334-8.213-18.334-18.34h0l-.005-25.927C73.456 8.233 81.666.026 91.792.025s18.331 8.21 18.334 18.334H99.385a7.6 7.6 0 0 0-7.593-7.594 7.6 7.6 0 0 0-7.594 7.594v25.927c0 4.195 3.399 7.594 7.594 7.594a7.6 7.6 0 0 0 7.593-7.589v-7.593h-7.593V25.952z"
       transform="matrix(2 0 0 2 40 158)"
       id="A"
       fill="#fff" />
  </defs>
  <metadata
     id="metadata61">
    <rdf:RDF>
      <cc:Work
         rdf:about="">
        <dc:format>image/svg+xml</dc:format>
        <dc:type
           rdf:resource="http://purl.org/dc/dcmitype/StillImage" />
        <dc:title></dc:title>
      </cc:Work>
    </rdf:RDF>
  </metadata>
  <g
     id="g73"
     style="display:inline">
    <rect
       width="200"
       height="200"
       ry="0.74835002"
       fill="url(#linearGradient1049)"
       opacity="0.999"
       style="paint-order:markers stroke fill"
       id="rect63"
       x="0"
       y="0" />
    <g
       id="g71">
      <ellipse
         transform="matrix(1.0842,0.10644,0.042952,1.2051,-12.407,-49.892)"
         cx="108.5"
         cy="165.24001"
         rx="58.869999"
         ry="15.61"
         filter="url(#filter1009)"
         opacity="0.23262"
         style="paint-order:markers stroke fill"
         id="ellipse65" />
      <ellipse
         transform="matrix(0.36117,-0.020551,0.014308,0.65148,101.83,63.468)"
         cx="108.5"
         cy="165.24001"
         rx="58.869999"
         ry="15.61"
         filter="url(#filter1009-9)"
         opacity="0.22192"
         style="paint-order:markers stroke fill"
         id="ellipse67" />
      <path
         d="m 46.244,163.32 83.701,14.132 24.422,-11.11 -0.31557,-0.33266 -86.658,-14.695 z"
         filter="url(#filter1070)"
         id="path69" />
    </g>
  </g>
  <g
     transform="translate(3.3145,3.6406)"
     id="g99"
     style="display:inline">
    <path
       d="m 128.59,22.736 -29.52,0.84866 -56.293,7.4286 v 127.87 l 83.715,13.869 2.0985,-54.061 z"
       fill="url(#linearGradient1003)"
       id="path75" />
    <path
       d="m 126.5,19.966 24.086,8.5798 0.009,133.13 -24.095,11.077 -0.009,-53.554 2.108,-0.50735 -7.706,-5.4396 -2.3049,0.14865 0.001,-34.073 c -0.20512,-0.0187 -0.61837,-0.04368 -0.61837,-0.04368 l 8.5293,-5.8599 z"
       fill="url(#linearGradient981)"
       id="path77" />
    <path
       d="m 126.5,19.966 -27.421,3.6187 -38.908,138.18 66.33,10.988 -0.51387,-53.432 -8.0142,-5.8803 c 10e-6,-11.386 4e-5,-22.771 4e-5,-34.157 l 8.528,-5.8599 z"
       fill="url(#linearGradient2082)"
       id="path79" />
    <path
       d="m 128.6,118.68 -2.1178,0.51446 0.0104,53.554 -0.17662,-0.0298 -0.33725,-53.403 -8.0142,-5.8803 2.9142,-0.1968 m 5.6134,-93.278 v 53.458 l -0.495,0.33954 0.001,-53.733"
       fill="url(#linearGradient2114)"
       stroke-opacity="0"
       style="mix-blend-mode:normal;paint-order:markers stroke fill"
       id="path81" />
    <path
       d="m 128.59,22.736 20.572,7.2795 v 130.83 l -20.572,9.277 v -51.434 l -7.706,-5.4396 v -33.668 l 7.706,-5.7401 z"
       fill="#01a5d4"
       id="path83" />
    <path
       d="m 128.59,73.844 v 44.847 l -7.706,-5.4396 v -33.668 z"
       fill="#05c5d9"
       id="path85" />
    <path
       d="m 130.82,96.272 3.0713,1.8068 v 11.597 l -3.0713,-0.20742 z m 13.382,19.434 v -3.2288 l 3.0713,0.20742 v 10.388 l -3.0713,-0.20742 v -3.2288 l -13.382,-0.90369 v -3.9308 z m 3.0713,9.4728 v 3.9308 l -16.454,-1.1111 v -3.9308 z m 0,10.669 v 3.9308 l -16.454,-1.1111 v -3.9308 z m -13.382,5.1328 v 10.388 l -3.0713,-0.20742 v -10.388 z m 3.6198,18.521 v -5.7821 l 3.0713,0.20741 v 4.1834 l 3.6198,-1.6395 v -2.2995 l 3.0713,0.20742 v 4.6327 l -16.454,7.4523 v -3.9308 z m 3.0713,-29.44 v 3.9308 l -3.0713,-0.20741 v -3.9308 z m 0,11.371 v 10.388 l -3.0713,-0.20741 v -10.388 z m 0,-39.422 v 8.116 l -3.0713,-0.20741 v -9.7132 z m 3.6198,2.1284 3.0713,1.8068 v 4.6327 l -3.0713,-0.20742 z m 3.0713,37.745 v 10.388 l -3.0713,-0.20742 v -10.388 z"
       fill="#002a63"
       stroke-width="0.31023"
       id="path87" />
    <g
       transform="matrix(0,1,-0.59918,0,196.46,45.929)"
       id="g97">
      <path
         d="m 114.92,78.928 9.277,34.334 -50.376,0.002 9.6644,-34.335 z"
         fill="#095a6f"
         id="path89" />
      <path
         d="m 41.983,78.927 41.501,0.0016 -9.6644,34.335 -38.679,0.0106 z"
         fill="#001d25"
         id="path91" />
      <path
         d="m 81.8,85.611 3.6628,-0.09578 v 21.506 l -3.6778,-0.0752 z m 5.625,17.417 9.6802,0.1204 v 4.2498 l -9.6802,-0.30102 z m 17.241,-4.3921 -5.5986,-0.07526 v -4.5207 l 3.7628,-0.06021 -1.7555,-4.4072 -2.0073,-0.01504 v -4.3551 l 3.9105,-0.07526 9.3643,22.707 -3.8283,-0.10537 z m -27.837,-4.4278 3.6628,-0.0319 v 4.1311 L 76.829,98.27539 Z m 10.596,-0.07784 9.6795,-0.06021 v 4.4605 L 87.425,98.45529 Z m 0,-8.672 9.6802,-0.19566 v 4.325 l -9.6802,0.09031 z"
         fill="#64f6f6"
         stroke-width="0.32704"
         id="path93" />
      <path
         d="m 76.829,94.208 2.3617,-0.02067 -1.1513,4.0987 -1.2104,-0.0108 z m -30.872,11.685 1.4903,-3.3919 10.806,0.13545 v 3.6026 z m 17.267,-15.997 -3.0087,0.03762 v -3.8133 l 9.6802,-0.21825 v 3.9412 l -3.0087,0.03762 v 16.608 l -3.6628,-0.0957 z m 8.6337,-4.0402 3.6628,-0.10643 v 20.986 l -3.6628,-0.0903 z m -21.167,8.5753 7.5627,-0.0602 v 3.6778 l -9.1112,-0.13546 z m 1.7405,-4.4372 1.5053,-3.723 4.3168,-0.09784 v 3.7606 z"
         fill="#33d3ff"
         id="path95" />
    </g>
  </g>
  <g
     id="g117"
     style="display:inline">
    <path
       d="m 46.095,162.52 v -22.071 l 83.714,13.902 -1.5e-4,22.038 z"
       fill="#f2f2f2"
       id="path101" />
    <g
       font-family="sans-serif"
       letter-spacing="0px"
       word-spacing="0px"
       id="g115">
      <text
         transform="matrix(0.74666,0.12275,0,1.3393,0,0)"
         x="65.024605"
         y="112.39362"
         display="none"
         fill="#000000"
         font-size="17.411px"
         stroke-width="0.35436"
         style="line-height:1.25"
         xml:space="preserve"
         id="text105"><tspan
           x="0"
           y="0"
           fill="#000000"
           font-family="sans-serif"
           font-size="17.411px"
           font-weight="bold"
           stroke-width="0.35436"
           id="tspan103">Extensions</tspan></text>
      <text
         transform="matrix(0.79094576,-0.09386868,0,1.2643092,0,0)"
         x="70.078117"
         y="49.930649"
         fill="url(#linearGradient921)"
         font-size="16.4049px"
         stroke="url(#linearGradient929)"
         stroke-width="0.630945"
         style="line-height:1.25;display:inline;fill:url(#linearGradient921);stroke:url(#linearGradient929)"
         xml:space="preserve"
         id="text109"><tspan
           x="70.078117"
           y="49.930649"
           fill="url(#linearGradient921)"
           font-family="sans-serif"
           font-size="16.4049px"
           font-weight="bold"
           stroke="url(#linearGradient929)"
           stroke-width="0.630945"
           id="tspan107"
           style="fill:url(#linearGradient921);stroke:url(#linearGradient929)">MD Shell</tspan></text>
      <text
         transform="matrix(0.79094,0.12918,0,1.2643,0,0)"
         x="61.232632"
         y="119.69113"
         fill="url(#linearGradient995)"
         font-size="16.405px"
         stroke="url(#linearGradient997)"
         stroke-width="0.63095"
         style="line-height:1.25;display:inline"
         xml:space="preserve"
         id="text113"><tspan
           x="61.232632"
           y="119.69113"
           fill="url(#linearGradient995)"
           font-family="sans-serif"
           font-size="16.405px"
           font-weight="bold"
           stroke="url(#linearGradient997)"
           stroke-width="0.63095"
           id="tspan111">Extensions</tspan></text>
    </g>
  </g>
  <g
     transform="matrix(0.77424,0,0,0.77424,112.63,25.383)"
     id="g174"
     style="display:inline"
     inkscape:groupmode="layer">
    <g
       stroke-width="0.82118"
       id="g125">
      <path
         d="m -7.5157,66.458 v 77.412 c 0,2.436 -1.9818,4.4325 -4.5674,4.0398 l -47.525,-7.2189 c -1.9062,-0.28955 -3.4724,-1.9023 -3.4724,-4.2661 v -84.215 c 0,-2.3647 1.1906,-4.0579 3.4724,-4.267 l 34.439,-3.1554 z"
         fill="#b3b3b3"
         id="path119" />
      <path
         d="M -25.169,66.458 -7.516,88.146 V 66.458 Z"
         opacity="0.4"
         id="path121" />
      <path
         d="m -8.5285,63.453 -14.181,-17.422 c -0.65122,-0.80006 -1.5336,-1.2442 -2.4597,-1.2442 v 21.671 h 17.653 c 0,-1.1195 -0.36154,-2.2045 -1.0128,-3.0046 z"
         fill="#e6e6e6"
         id="path123" />
    </g>
    <path
       d="m -48.492,58.534 -5.8751,65.517 -8.7008,9.924 6.15,-10.867 6.019,-67.751 c 0.64755,0.31007 2.5517,1.4322 2.4069,3.1778 z"
       opacity="0.4"
       stroke-width="0.85655"
       id="path127" />
    <g
       transform="matrix(0.052233,-0.043829,0.043829,0.052233,-41.893,76.171)"
       id="g172"
       style="display:inline">
      <path
         d="M -718.98,276.54 -108.92,-333.52 1.45,-224.7 -607.79,384.55 c -111.19,42.832 -101.44,5.504 -68.658,-83.839 -25.462,9.266 -56.817,13.497 -42.536,-24.174 z"
         fill="#fde061"
         id="path150" />
      <path
         d="m -763.68,397.59 44.684,-120.99 c -1.657,13.479 -2.446,20.206 -0.331,21.593 5.138,3.37 33.879,-2.455 42.896,2.512 4.273,12.189 -11.973,42.504 -5.24,49.225 6.311,6.298 52.395,-5.271 58.6,-1.353 0.745,36.525 -15.633,38.854 8.027,38.672 l -117.15,43.776 c -10.08,-9.097 -25.571,-15.664 -15.174,-34.334 z"
         fill="#fcb180"
         id="path152" />
      <path
         d="m -623.08,348.58 c -55.782,18.405 -78.519,8.198 -53.357,-47.868 l 601.11,-601.11 50.974,50.251 z"
         fill="#fdce24"
         id="path154" />
      <path
         d="m -623.08,348.58 598.73,-598.73 25.814,25.469 -609.24,609.24 -22.619,8.405 z"
         fill="#f4b729"
         id="path156" />
      <path
         d="m -727.27,416.03 104.2,-67.448 c 1.828,6.341 -5.376,33.067 -4.644,36.381 0.357,1.618 5.052,2.035 12.671,2.292 l -119.57,44.927 z"
         fill="#df8040"
         id="path158" />
      <path
         d="m -676.44,300.71 c 3.464,6.731 -6.175,25.521 -7.071,42.295 -0.434,8.124 3.69,8.584 11.805,8.483 24.037,-0.876 42.898,-6.382 48.626,-2.906 l -104.2,67.448 c -23.115,-2.147 -21.762,5.937 -20.107,-19.333 z"
         fill="#f3975a"
         id="path160" />
      <path
         d="m -782.9,448.65 19.411,-51.731 c 0.396,-1.055 4.025,-1.309 8.734,-1.309 8.875,0 9.314,0.576 7.711,10.134 -0.606,3.615 -0.877,7.179 -0.602,7.92 0.352,0.947 3.511,1.347 10.625,1.347 9.076,0 10.124,0.203 10.124,1.964 0,2.768 -2.786,13.421 -4.728,14.138 l -50.1,18.525 c -1.24,0.459 -1.488,-0.16 -1.177,-0.988 z"
         fill="#0f0d0b"
         id="path162" />
      <path
         d="m -49.377,-393.06 47.509,-47.509 c 18.819,-22.203 131.38,87.037 109.6,109.6 l -47.508,47.508 a 1113.8,1113.8 0 0 1 -109.6,-109.6 z"
         fill="#ec9190"
         id="path164" />
      <path
         d="m -17.664,-358.06 63.904,-63.904 c 12.902,9.508 38.58,34.333 50.759,52.774 l -62.53,62.562 c -18.736,-17.49 -33.461,-31.859 -52.133,-51.432 z"
         fill="#e86c6a"
         id="path166" />
      <path
         d="m 34.48,-306.64 62.538,-62.538 c 3.42,5.268 18.844,26.616 11.53,37.393 l -48.323,48.316 c -8.826,-7.679 -17.496,-15.67 -25.745,-23.171 z"
         fill="#d6514f"
         id="path168" />
      <path
         d="m -108.93,-333.51 59.549,-59.549 c 33.136,36.997 70.994,73.559 109.6,109.6 L 0.67,-223.91 c -38.49,-34.283 -77.593,-72.389 -109.6,-109.6 z"
         fill="#dbdbdb"
         id="path170" />
    </g>
    <path
       id="rect848-7"
       style="display:inline;opacity:0.998;fill:#000000;fill-opacity:1;stroke-width:0.703005"
       d="m -50.75157,92.864886 c -1.656868,0.1497 -2.996412,1.17698 -2.996412,2.639 v 23.510104 c 0,1.46199 1.345792,2.38728 2.996412,2.63897 l 38.174845,5.82104 c 1.650642,0.2517 2.9964096,-1.17698 2.9964096,-2.63897 V 92.054866 c 0,-1.46203 -1.3395216,-2.78871 -2.9964096,-2.63901 z m 1.018322,4.295762 4.699442,-0.41767 4.700891,7.681722 4.700897,-8.557232 4.700916,-0.412322 v 25.362924 l -4.700916,-0.70952 v -14.42363 l -4.700897,7.87322 -4.700891,-7.87322 v 12.98937 l -4.699442,-0.70667 z m 26.73641,-2.447252 4.700917,-0.41366 v 18.418114 l 4.700895,0.86331 -7.050637,8.90556 -7.050615,-11.53144 4.69944,0.8633 z"
       sodipodi:nodetypes="sssssssssccccccccccccccccccccc" />
    <path
       style="display:none;fill:#000000;stroke-width:0.0556103"
       d="m -34.542314,127.35665 3.16363,0.48992 c 0.0634,-0.0635 0.0343,-23.92979 -0.0293,-23.94786 l -6.91641,14.29186 -6.4161,-13.8581 -0.0485,21.47018 -6.01863,-0.88044 0.007,-37.06555 5.9226,-0.543326 6.56384,14.203006 6.91643,-15.437596 7.49597,-0.684324 0.13047,43.58789 3.789075,0.64267 -7.551595,9.23536 z"
       id="path1103-6"
       sodipodi:nodetypes="cccccccccccccccc" />
    <path
       d="M -51.184829,125.95828 V 93.372078 l 5.248577,-0.555502 5.768464,12.521654 5.508485,-13.696667 5.508616,-0.577659 v 38.706836 l -5.508568,-0.96166 -4.8e-5,-21.5563 -5.508485,11.96615 -5.50851,-11.96613 v 19.66947 z m 34.428255,6.10919 -8.262783,-22.92763 5.50852,0.95776 V 90.081432 l 5.508521,-0.597287 v 21.522505 l 5.5085208,1.03385 z"
       id="path889"
       style="display:none;opacity:0.996;fill:#000000;stroke-width:0.363086"
       sodipodi:nodetypes="ccccccccccccccccccccc" />
  </g>
</svg>
