<?xml version="1.0" encoding="UTF-8"?>
<svg version="1.1" viewBox="0 0 512 512" xmlns="http://www.w3.org/2000/svg">
 <path d="m253.85 83.881c-73.629 0-110.44 47.81-110.44 95.143 0 23.135 8.4726 42.088 21.189 57.609h142.37c-12.185-6.9375-24.439-12.313-34.949-16.49-37.771-15.3-52.115-28.687-52.115-46.377 0-12.909 12.909-24.385 30.121-24.385 29.165 0 64.066 26.297 68.369 28.688 4.303 3.3468 12.909-0.95758 16.256-6.2168l24.385-36.814c1.9124-3.3468 2.8682-11.952-2.8691-15.299-14.343-10.518-52.593-35.857-102.32-35.857zm-38.414 191.49c7.0076 3.5395 14.007 6.6647 20.725 9.3203 32.512 12.909 49.246 28.208 49.246 48.289 0 16.734-13.866 28.686-32.99 28.686-31.555 0-65.98-25.339-67.893-26.295-3.3468-2.3906-12.429-3.3483-16.254 2.8672l-22.473 39.684c-3.8249 6.6936-2.3905 8.6056 2.3906 13.387 10.997 10.997 45.422 36.814 107.58 36.814 70.282 0 112.83-49.723 112.83-98.969 0-21.67-6.6674-39.282-16.828-53.783z" fill="#2196f3"/>
 <path d="m93.94 241.69h324.12c7.9272 0 14.309 6.3816 14.309 14.308s-6.3818 14.308-14.309 14.308h-324.12c-7.9272 0-14.309-6.3816-14.309-14.308s6.3818-14.308 14.309-14.308z" fill="#2196f3"/>
</svg>
