<?xml version="1.0" encoding="UTF-8"?>
<svg version="1.1" viewBox="0 0 512 512" xmlns="http://www.w3.org/2000/svg">
 <path fill="#2196f3" d="m70.993 83.008 102.07 145.01-110.32 156.95h61.983l79.325-119.14 16.491 25.307 61.983 93.827h62.838l-112.31-159.8 104.35-142.16h-61.13l-50.896 71.367c-7.0135 9.6672-14.69 20.756-23.031 33.265-5.3076-9.0988-12.321-20.377-21.04-33.835l-46.346-70.798h-63.975zm333.26 201.77c-12.775 0-23.421 3.2581-31.938 9.7744-8.5168 6.5167-13.582 17.26-15.195 32.229l27.1 2.7096c0.51619-7.9363 2.4523-13.614 5.8074-17.034 3.3552-3.4196 7.8713-5.1295 13.549-5.1295 5.7424 0 10.227 1.6454 13.453 4.936 3.2906 3.2261 4.936 7.8713 4.936 13.936 0 5.4843-1.8713 11.033-5.6137 16.646-2.7745 4.065-10.292 11.807-22.55 23.229-15.227 14.13-25.422 25.486-30.583 34.066-5.1617 8.5168-8.2586 17.55-9.2913 27.1h95.329v-25.26h-54.004c1.4194-2.4518 3.2582-4.9684 5.5164-7.549 2.3227-2.5809 7.7747-7.8072 16.356-15.679 8.5817-7.8714 14.517-13.905 17.808-18.098 4.9682-6.3232 8.581-12.356 10.84-18.099 2.3227-5.8071 3.4839-11.904 3.4839-18.292 0-11.227-4.0001-20.615-12.001-28.165-8.0004-7.5498-19.002-11.324-33.002-11.324z"/>
</svg>
