<?xml version="1.0" encoding="UTF-8"?>
<svg version="1.1" viewBox="0 0 512 512" xmlns="http://www.w3.org/2000/svg">
 <path fill="#2196f3" d="m404.25 40.733c-12.775 0-23.421 3.2582-31.938 9.7745-8.5168 6.5167-13.582 17.26-15.195 32.229l27.1 2.7096c0.51619-7.9363 2.4519-13.614 5.8071-17.034 3.3552-3.4196 7.8714-5.1296 13.55-5.1296 5.7424 0 10.227 1.6454 13.453 4.936 3.2906 3.2261 4.936 7.8714 4.936 13.936 0 5.4843-1.871 11.033-5.6133 16.646-2.7745 4.0648-10.292 11.807-22.55 23.227-15.227 14.13-25.422 25.486-30.583 34.067-5.1617 8.5168-8.2587 17.55-9.2914 27.1h95.329v-25.261h-54.004c1.4194-2.4518 3.2582-4.9684 5.5165-7.549 2.3227-2.5809 7.7748-7.8072 16.357-15.679s14.518-13.905 17.808-18.098c4.9682-6.3232 8.581-12.356 10.84-18.099 2.3227-5.8071 3.484-11.904 3.484-18.292 0-11.227-4.0001-20.615-12.001-28.165-8.0005-7.549-19.002-11.324-33.002-11.324zm-333.26 42.274 102.07 145.01-110.32 156.95h61.984l79.325-119.14 16.491 25.307 61.984 93.827h62.838l-112.31-159.8 104.35-142.16h-61.131l-50.896 71.367c-7.0135 9.6673-14.69 20.756-23.031 33.266-5.3076-9.0989-12.321-20.377-21.04-33.835l-46.347-70.798h-63.975z"/>
</svg>
