<?xml version="1.0" encoding="UTF-8"?>
<svg version="1.1" viewBox="0 0 512 512" xmlns="http://www.w3.org/2000/svg">
 <path d="m103.95 245.19c0 82.328 68.787 150.57 153.82 150.57 85.578 0 154.91-68.246 154.91-150.57v-150.41c0-5.4163-4.8747-10.291-10.291-10.291h-66.621c-5.958 0-10.291 4.8747-10.291 10.291v146.08c0 37.914-28.707 68.246-67.704 68.246-38.456 0-66.621-30.331-66.621-68.246v-146.08c0-5.4163-4.3331-10.291-10.291-10.291h-66.621c-5.4163 0-10.291 4.8747-10.291 10.291z" fill="#2196f3"/>
 <path d="m93.939 399.69h324.12c7.927 0 14.309 6.3816 14.309 14.309s-6.3816 14.309-14.309 14.309h-324.12c-7.927 0-14.309-6.3816-14.309-14.309s6.3816-14.309 14.309-14.309z" fill="#2196f3"/>
</svg>
