<?xml version="1.0" encoding="UTF-8"?>
<svg version="1.1" viewBox="0 0 512 512" xmlns="http://www.w3.org/2000/svg">
 <path fill="#2196F3" d="M48 368a48 48 0 1 0 48 48 48 48 0 0 0-48-48zm0-160a48 48 0 1 0 48 48 48 48 0 0 0-48-48zm0-160a48 48 0 1 0 48 48 48 48 0 0 0-48-48zm448 24H176a16 16 0 0 0-16 16v16a16 16 0 0 0 16 16h320a16 16 0 0 0 16-16V88a16 16 0 0 0-16-16zm0 160H176a16 16 0 0 0-16 16v16a16 16 0 0 0 16 16h320a16 16 0 0 0 16-16v-16a16 16 0 0 0-16-16zm0 160H176a16 16 0 0 0-16 16v16a16 16 0 0 0 16 16h320a16 16 0 0 0 16-16v-16a16 16 0 0 0-16-16z"/>
</svg>